PathFileType	4	(X/Y/Z)	G:\GRF\jawan data\CompiledGRF\03. Mohit Kumar\0231~ac~Walking 08_markers.trc
DataRate	CameraRate	NumFrames	NumMarkers	Units	OrigDataRate	OrigDataStartFrame	OrigNumFrames
100.000000	100.000000	7	18	mm	100.000000	328	876
Frame#	Time	c7			r should			l should			sacrum			r asis			r bar 1			r knee 1			r bar 2			r mall			r heel			r met			l asis			l bar 1			l knee 1			l bar 2			l mall			l heel			l met			
		X1	Y1	Z1	X2	Y2	Z2	X3	Y3	Z3	X4	Y4	Z4	X5	Y5	Z5	X6	Y6	Z6	X7	Y7	Z7	X8	Y8	Z8	X9	Y9	Z9	X10	Y10	Z10	X11	Y11	Z11	X12	Y12	Z12	X13	Y13	Z13	X14	Y14	Z14	X15	Y15	Z15	X16	Y16	Z16	X17	Y17	Z17	X18	Y18	Z18	

329	3.28	-1682.833374023438	1505.559448242188	229.2000274658203	-1637.505981445313	1455.876831054688	394.0465393066406	-1629.741577148438	1462.322509765625	68.46234130859375	-1834.20263671875	1059.055053710938	240.7630462646484	nan	nan	nan	-1613.320434570313	610.6178588867188	433.1305236816406	-1561.402099609375	539.39306640625	384.5707092285156	-1551.5732421875	215.1137084960938	404.1509704589844	-1499.240600585938	88.18155670166016	348.8209533691406	nan	nan	nan	-1353.453735351563	97.11592102050781	362.3718566894531	nan	nan	nan	-1787.26416015625	600.6026611328125	47.67806243896484	-1788.8994140625	512.8984375	106.4440689086914	nan	nan	nan	nan	nan	nan	nan	nan	nan	nan	nan	nan	
330	3.29	-1673.700317382813	1504.479858398438	230.4979553222656	-1628.27197265625	1454.66162109375	395.3679504394531	-1620.205444335938	1461.53759765625	69.74013519287109	-1824.192016601563	1057.97509765625	241.9458923339844	nan	nan	nan	-1605.834228515625	608.4796142578125	433.7218322753906	-1554.068603515625	537.3370971679688	384.6858215332031	-1533.8662109375	213.8521881103516	405.1455383300781	-1478.23095703125	88.80934906005859	349.9884948730469	nan	nan	nan	-1331.890502929688	101.4824829101563	361.8218994140625	nan	nan	nan	-1781.649291992188	601.0186157226563	48.15364074707031	-1783.332153320313	512.7125854492188	106.4510040283203	nan	nan	nan	nan	nan	nan	nan	nan	nan	nan	nan	nan	
331	3.3	-1664.464477539063	1503.427001953125	231.88916015625	-1619.023071289063	1453.495483398438	396.7815246582031	-1610.68603515625	1460.868286132813	71.10956573486328	-1814.137329101563	1056.93505859375	243.1620941162109	nan	nan	nan	-1598.052856445313	606.4384155273438	434.1600646972656	-1546.406494140625	535.4618530273438	384.8200378417969	-1517.153442382813	213.2271575927734	406.1785888671875	-1458.633422851563	89.27585601806641	350.5227661132813	nan	nan	nan	-1312.708251953125	105.5280990600586	360.7005615234375	nan	nan	nan	-1774.6552734375	600.70361328125	48.54427337646484	-1777.300415039063	512.5443725585938	106.3501281738281	nan	nan	nan	nan	nan	nan	nan	nan	nan	nan	nan	nan	
332	3.31	-1655.17919921875	1502.421752929688	233.35595703125	-1609.646362304688	1452.348266601563	398.2478637695313	-1601.132690429688	1460.289184570313	72.56304168701172	-1803.889892578125	1055.872192382813	244.3698577880859	nan	nan	nan	-1589.615478515625	604.5048828125	434.4254760742188	-1538.192016601563	533.9229125976563	384.8788757324219	-1501.072387695313	212.5650787353516	407.38623046875	-1441.007690429688	89.66860961914063	351.3861694335938	nan	nan	nan	-1295.342895507813	108.4850845336914	359.3086547851563	nan	nan	nan	-1767.379272460938	600.3939208984375	48.94696807861328	-1771.033447265625	511.8950500488281	106.8573837280273	nan	nan	nan	nan	nan	nan	nan	nan	nan	nan	nan	nan	
333	3.32	-1645.930908203125	1501.478271484375	234.8576354980469	-1600.347900390625	1451.318969726563	399.8022155761719	-1591.4951171875	1459.811645507813	74.09761810302734	-1793.485717773438	1054.792358398438	245.5518035888672	nan	nan	nan	-1580.606201171875	602.9429321289063	434.640869140625	-1529.306762695313	532.6057739257813	384.8441772460938	-1486.301879882813	212.2211456298828	408.6930541992188	-1425.412719726563	89.91999816894531	352.157958984375	nan	nan	nan	-1279.910400390625	110.3122329711914	357.6745300292969	nan	nan	nan	-1759.704345703125	600.072998046875	49.36095428466797	-1764.615356445313	511.5372619628906	107.3845291137695	nan	nan	nan	nan	nan	nan	nan	nan	nan	nan	nan	nan	
334	3.33	-1636.596435546875	1500.586791992188	236.4629211425781	-1590.990112304688	1450.380981445313	401.4725341796875	-1581.898193359375	1459.409912109375	75.76001739501953	-1782.922729492188	1053.684814453125	246.6760406494141	nan	nan	nan	-1570.625854492188	601.6118774414063	434.9181213378906	-1519.850219726563	531.4044799804688	384.9109497070313	-1472.702270507813	211.5377197265625	410.0886840820313	-1412.121704101563	89.81462097167969	352.7876892089844	nan	nan	nan	-1266.500732421875	110.8553237915039	355.7615356445313	nan	nan	nan	-1751.0634765625	599.2820434570313	49.86447906494141	-1757.496459960938	511.0392456054688	107.7401657104492	nan	nan	nan	nan	nan	nan	nan	nan	nan	nan	nan	nan	
335	3.34	-1627.162475585938	1499.74609375	238.2124938964844	-1581.482055664063	1449.458740234375	403.1672973632813	-1572.287353515625	1459.083129882813	77.50575256347656	-1772.165283203125	1052.567016601563	247.722900390625	nan	nan	nan	-1559.681396484375	600.548828125	435.2296142578125	-1509.772583007813	530.2213745117188	385.0263061523438	-1460.6572265625	210.5965270996094	410.9369201660156	-1400.531494140625	88.66368103027344	353.0164794921875	nan	nan	nan	-1255.329345703125	110.1894683837891	353.9278259277344	nan	nan	nan	-1743.60595703125	599.6951904296875	50.09854507446289	-1750.175415039063	510.6947326660156	107.9111480712891	nan	nan	nan	nan	nan	nan	nan	nan	nan	nan	nan	nan	
